<svg width="512" height="512" viewBox="0 0 512 512" fill="none" xmlns="http://www.w3.org/2000/svg">
<g clip-path="url(#clip0_863_2)">
<rect width="512" height="512" rx="256" fill="#FEE3C7"/>
<path d="M139 -4V516" stroke="#EEAB65" stroke-dasharray="6 6"/>
<path d="M-8 373L512 373" stroke="#EEAB65" stroke-dasharray="6 6"/>
<path d="M373 0V520" stroke="#EEAB65" stroke-dasharray="6 6"/>
<path d="M-4 139L516 139" stroke="#EEAB65" stroke-dasharray="6 6"/>
<path d="M299.292 71.5526L307.063 81.9143C307.351 83.0657 307.495 84.7926 307.495 87.0952C307.495 92.2761 306.776 97.3131 305.336 102.206C303.897 106.811 301.595 113 298.429 120.771L294.975 128.974C293.823 129.838 291.953 131.421 289.362 133.723C286.772 136.026 284.613 138.329 282.886 140.631C276.554 146.676 268.926 149.698 260.004 149.698C255.974 149.698 251.225 148.69 245.756 146.676C233.955 141.782 227.047 135.162 225.033 126.815C224.745 125.952 223.45 121.491 221.147 113.431C217.981 105.084 216.398 98.1766 216.398 92.7079C216.398 88.6783 217.117 85.2244 218.557 82.3461C223.737 73.9991 230.357 67.0912 238.417 61.6225C246.764 55.866 255.111 52.9877 263.458 52.9877C269.502 52.9877 274.971 54.4268 279.864 57.3051C286.772 61.3347 291.665 64.6447 294.543 67.2352L299.292 71.5526ZM125.3 140.631L144.297 146.676C152.356 150.993 158.257 154.735 161.998 157.901C166.028 161.067 168.187 165.384 168.475 170.853C173.08 169.126 177.973 168.119 183.154 167.831C188.335 167.543 191.501 167.399 192.652 167.399L206.468 165.672C213.088 164.233 219.132 163.513 224.601 163.513C227.767 163.513 230.07 163.657 231.509 163.945C232.66 163.657 234.387 163.082 236.69 162.218C239.28 161.355 240.719 161.643 241.007 163.082C245.037 162.506 249.498 162.218 254.391 162.218C259.284 162.218 262.45 162.218 263.889 162.218C264.753 162.218 266.336 162.218 268.639 162.218C270.941 161.93 272.812 161.355 274.251 160.491C275.978 161.355 277.561 161.786 279 161.786C280.727 161.786 282.166 161.643 283.318 161.355C284.757 161.067 285.908 160.779 286.772 160.491C287.347 160.779 288.067 160.923 288.93 160.923C290.082 160.923 291.665 160.779 293.679 160.491C295.982 159.916 297.565 160.203 298.429 161.355L304.905 160.491C306.632 160.491 310.086 160.491 315.267 160.491C320.447 160.491 325.053 160.779 329.082 161.355C331.097 161.355 333.112 161.211 335.127 160.923C337.141 160.347 339.156 160.059 341.171 160.059C343.186 160.059 344.769 160.491 345.92 161.355C347.359 161.067 349.374 160.923 351.965 160.923L362.758 161.355C367.363 161.355 371.105 160.491 373.983 158.764C376.574 158.764 379.452 159.052 382.618 159.628C385.784 160.203 388.087 160.635 389.526 160.923C394.995 163.226 399.456 166.104 402.91 169.558C405.788 176.753 407.227 183.805 407.227 190.713C407.227 197.045 405.644 202.37 402.478 206.688C399.888 209.854 395.283 212.012 388.663 213.164C385.496 213.451 381.899 212.732 377.869 211.005C373.839 208.99 370.817 207.695 368.802 207.119C366.5 205.68 363.478 203.521 359.736 200.643C356.282 197.477 352.972 195.318 349.806 194.167C347.791 194.167 345.92 194.023 344.193 193.735C342.754 193.447 341.459 193.16 340.308 192.872C335.127 191.721 331.097 191.145 328.219 191.145C325.053 191.145 322.75 191.433 321.311 192.008H315.267C310.086 192.008 306.344 191.145 304.041 189.418C300.587 189.994 297.853 190.281 295.838 190.281C293.248 190.281 290.945 189.706 288.93 188.554C288.067 188.554 286.916 188.842 285.476 189.418C284.325 189.706 283.462 189.418 282.886 188.554C282.598 189.418 281.879 189.85 280.727 189.85C279.576 189.85 278.425 189.706 277.273 189.418C276.41 188.842 275.546 188.554 274.683 188.554C274.107 188.267 273.244 188.123 272.092 188.123C270.365 188.123 269.07 188.267 268.207 188.554H260.435C256.694 188.554 253.959 188.267 252.232 187.691C248.203 188.267 243.885 188.554 239.28 188.554C234.675 188.554 231.653 188.554 230.214 188.554C228.199 188.554 226.184 188.842 224.169 189.418C222.154 189.706 220.14 189.85 218.125 189.85C215.822 189.85 213.807 189.418 212.08 188.554L190.062 190.281C188.335 189.418 186.752 188.986 185.312 188.986C183.298 188.986 181.139 189.418 178.836 190.281C176.534 189.706 174.807 189.418 173.655 189.418C171.065 189.418 169.194 190.425 168.043 192.44L165.452 204.529C162.286 219.784 158.832 232.304 155.091 242.09C154.803 242.666 153.939 243.961 152.5 245.976C151.061 247.991 149.334 249.286 147.319 249.862C143.865 253.891 140.699 257.057 137.821 259.36C135.23 261.375 132.064 262.526 128.323 262.814C114.507 259.936 104.289 257.345 97.669 255.043C90.1855 251.876 82.8459 245.688 75.6502 236.478C75.0746 212.588 79.1042 191.864 87.739 174.307C88.8903 172.292 90.3294 170.277 92.0564 168.263C93.7834 166.248 95.6542 164.809 97.669 163.945L99.396 155.31C102.274 151.281 106.736 147.539 112.78 144.085C114.507 143.797 116.09 143.222 117.529 142.358C119.256 141.495 120.839 140.919 122.278 140.631C123.717 140.055 124.725 140.343 125.3 141.495V140.631ZM291.089 211.005L307.495 214.027C318.145 222.95 323.614 231.872 323.901 240.795C322.174 244.537 319.872 248.279 316.994 252.02C314.115 255.474 312.388 257.633 311.813 258.496C310.661 262.814 307.927 266.124 303.61 268.427C300.731 268.427 299.004 269.722 298.429 272.312C296.414 275.19 293.823 278.5 290.657 282.242C287.779 285.984 285.476 288.862 283.749 290.877H293.248C297.277 290.301 300.443 290.014 302.746 290.014C310.517 289.438 315.842 288.143 318.72 286.128C319.296 285.84 320.16 285.696 321.311 285.696C322.462 285.696 324.477 285.984 327.355 286.56C328.219 286.272 329.514 286.128 331.241 286.128C332.968 286.128 334.983 286.416 337.285 286.991C339.876 287.279 341.891 287.567 343.33 287.855C353.116 290.157 362.758 296.634 372.256 307.283C372.832 313.903 371.393 319.948 367.939 325.416C364.485 330.597 359.736 334.195 353.692 336.21C350.813 336.498 348.223 336.642 345.92 336.642C343.618 336.354 341.603 336.21 339.876 336.21C334.695 336.21 330.234 336.929 326.492 338.369L320.016 338.8C318.577 338.8 316.994 338.512 315.267 337.937C314.115 338.512 312.676 338.944 310.949 339.232C309.51 339.52 308.503 339.664 307.927 339.664C307.063 339.664 305.193 339.664 302.314 339.664C299.724 339.376 297.565 338.512 295.838 337.073L286.34 340.527L291.953 352.184C292.24 353.623 292.816 355.926 293.679 359.092C294.831 361.97 295.263 364.705 294.975 367.295C294.399 369.886 293.967 372.764 293.679 375.93C293.392 379.384 293.248 381.687 293.248 382.838C290.369 387.155 288.067 392.048 286.34 397.517C282.598 400.108 277.993 405.001 272.524 412.196C266.768 419.68 261.875 424.717 257.845 427.307C253.815 429.322 248.922 430.329 243.166 430.329C240.288 430.329 238.129 430.186 236.69 429.898C235.538 429.322 233.092 428.171 229.35 426.444C225.896 425.005 223.018 423.134 220.715 420.831C218.7 418.816 217.549 416.226 217.261 413.06C217.549 411.621 217.549 409.606 217.261 407.015C216.973 404.713 216.83 402.842 216.83 401.403C216.83 398.524 217.405 396.078 218.557 394.063C219.996 392.912 221.579 391.904 223.306 391.041C225.32 390.465 226.616 390.034 227.191 389.746C232.084 389.17 235.97 387.155 238.848 383.701C242.014 380.535 244.749 376.794 247.051 372.476C249.354 368.447 251.081 365.424 252.232 363.41C247.051 352.184 240.431 344.269 232.372 339.664L227.191 340.096C223.162 340.096 219.276 339.376 215.534 337.937C213.807 338.8 212.08 339.232 210.353 339.232C208.626 339.232 206.612 338.944 204.309 338.369C202.294 337.793 200.855 337.361 199.992 337.073C197.401 336.786 193.803 336.498 189.198 336.21C184.881 335.922 181.427 335.059 178.836 333.619C177.973 333.907 176.822 334.051 175.382 334.051C173.655 334.051 169.914 333.332 164.157 331.892C161.567 332.468 158.545 332.9 155.091 333.188C151.924 333.476 149.622 333.619 148.183 333.619C145.017 331.317 143.434 328.295 143.434 324.553C143.434 321.675 144.297 319.084 146.024 316.782C148.039 314.191 150.485 312.32 153.364 311.169C155.378 310.305 158.545 309.586 162.862 309.01C168.043 308.435 172.216 307.283 175.382 305.556C180.563 305.556 185.744 305.125 190.925 304.261C193.803 303.398 196.969 302.966 200.423 302.966C203.877 302.966 206.036 302.966 206.9 302.966C208.626 302.39 210.785 301.958 213.376 301.671C216.254 301.383 218.557 300.951 220.283 300.375C222.01 299.512 223.45 298.073 224.601 296.058C225.177 294.907 225.896 293.18 226.76 290.877C227.911 288.574 229.35 287.135 231.077 286.56C232.804 284.833 236.69 279.508 242.734 270.585C243.598 267.995 245.037 265.116 247.051 261.95C246.188 261.663 243.885 261.087 240.144 260.223C236.69 259.36 233.38 259.072 230.214 259.36C229.062 259.936 227.479 260.223 225.464 260.223C222.586 260.223 219.42 259.504 215.966 258.065C203.014 256.05 194.667 250.581 190.925 241.659C190.349 239.356 190.062 237.773 190.062 236.909C190.062 232.016 192.652 227.987 197.833 224.821C203.302 221.367 209.202 219.64 215.534 219.64C217.837 219.64 219.564 219.784 220.715 220.071C224.457 216.618 229.782 214.891 236.69 214.891C240.144 214.891 245.037 215.466 251.369 216.618C252.808 215.466 254.679 214.459 256.981 213.595C259.572 212.732 261.443 212.012 262.594 211.437C264.321 211.725 266.768 211.581 269.934 211.005C273.1 210.141 275.402 209.71 276.842 209.71C277.993 209.71 279.432 209.998 281.159 210.573C282.31 209.998 283.318 209.71 284.181 209.71C285.62 209.71 287.491 209.998 289.794 210.573L291.089 211.005Z" fill="#1F1F1F"/>
</g>
<defs>
<clipPath id="clip0_863_2">
<rect width="512" height="512" rx="256" fill="white"/>
</clipPath>
</defs>
</svg>
